<?xml version="1.0" encoding="UTF-8" standalone="no"?>
<!DOCTYPE svg PUBLIC "-//W3C//DTD SVG 1.1//EN"
 "http://www.w3.org/Graphics/SVG/1.1/DTD/svg11.dtd">
<!-- Generated by graphviz version 3.0.0 (20220413.0242)
 -->
<!-- Title: name Pages: 1 -->
<svg width="643pt" height="1143pt"
 viewBox="0.00 0.00 643.00 1143.00" xmlns="http://www.w3.org/2000/svg" xmlns:xlink="http://www.w3.org/1999/xlink">
<g id="graph0" class="graph" transform="scale(1 1) rotate(0) translate(4 1139)">
<title>name</title>
<!-- employees -->
<g id="node1" class="node">
<title>employees</title>
<polygon fill="Lavender" stroke="transparent" points="98.5,-393.5 98.5,-416.5 269.5,-416.5 269.5,-393.5 98.5,-393.5"/>
<polygon fill="none" stroke="black" points="98.5,-393.5 98.5,-416.5 269.5,-416.5 269.5,-393.5 98.5,-393.5"/>
<text text-anchor="start" x="150" y="-401.9" font-family="Helvetica,sans-Serif" font-weight="bold" font-size="12.00">employees</text>
<polygon fill="White" stroke="transparent" points="98.5,-374.5 98.5,-393.5 210.5,-393.5 210.5,-374.5 98.5,-374.5"/>
<polygon fill="none" stroke="black" points="98.5,-374.5 98.5,-393.5 210.5,-393.5 210.5,-374.5 98.5,-374.5"/>
<text text-anchor="start" x="101.5" y="-380.9" font-family="Helvetica,sans-Serif" font-size="12.00">employeeNumber</text>
<polygon fill="White" stroke="transparent" points="210.5,-374.5 210.5,-393.5 269.5,-393.5 269.5,-374.5 210.5,-374.5"/>
<polygon fill="none" stroke="black" points="210.5,-374.5 210.5,-393.5 269.5,-393.5 269.5,-374.5 210.5,-374.5"/>
<text text-anchor="start" x="213.5" y="-380.9" font-family="Helvetica,sans-Serif" font-size="12.00">int</text>
<polygon fill="White" stroke="transparent" points="98.5,-355.5 98.5,-374.5 210.5,-374.5 210.5,-355.5 98.5,-355.5"/>
<polygon fill="none" stroke="black" points="98.5,-355.5 98.5,-374.5 210.5,-374.5 210.5,-355.5 98.5,-355.5"/>
<text text-anchor="start" x="101.5" y="-361.9" font-family="Helvetica,sans-Serif" font-size="12.00">lastName</text>
<polygon fill="White" stroke="transparent" points="210.5,-355.5 210.5,-374.5 269.5,-374.5 269.5,-355.5 210.5,-355.5"/>
<polygon fill="none" stroke="black" points="210.5,-355.5 210.5,-374.5 269.5,-374.5 269.5,-355.5 210.5,-355.5"/>
<text text-anchor="start" x="213.5" y="-361.9" font-family="Helvetica,sans-Serif" font-size="12.00">varchar</text>
<polygon fill="White" stroke="transparent" points="98.5,-336.5 98.5,-355.5 210.5,-355.5 210.5,-336.5 98.5,-336.5"/>
<polygon fill="none" stroke="black" points="98.5,-336.5 98.5,-355.5 210.5,-355.5 210.5,-336.5 98.5,-336.5"/>
<text text-anchor="start" x="101.5" y="-342.9" font-family="Helvetica,sans-Serif" font-size="12.00">firstName</text>
<polygon fill="White" stroke="transparent" points="210.5,-336.5 210.5,-355.5 269.5,-355.5 269.5,-336.5 210.5,-336.5"/>
<polygon fill="none" stroke="black" points="210.5,-336.5 210.5,-355.5 269.5,-355.5 269.5,-336.5 210.5,-336.5"/>
<text text-anchor="start" x="213.5" y="-342.9" font-family="Helvetica,sans-Serif" font-size="12.00">varchar</text>
<polygon fill="White" stroke="transparent" points="98.5,-317.5 98.5,-336.5 210.5,-336.5 210.5,-317.5 98.5,-317.5"/>
<polygon fill="none" stroke="black" points="98.5,-317.5 98.5,-336.5 210.5,-336.5 210.5,-317.5 98.5,-317.5"/>
<text text-anchor="start" x="101.5" y="-323.9" font-family="Helvetica,sans-Serif" font-size="12.00">extension</text>
<polygon fill="White" stroke="transparent" points="210.5,-317.5 210.5,-336.5 269.5,-336.5 269.5,-317.5 210.5,-317.5"/>
<polygon fill="none" stroke="black" points="210.5,-317.5 210.5,-336.5 269.5,-336.5 269.5,-317.5 210.5,-317.5"/>
<text text-anchor="start" x="213.5" y="-323.9" font-family="Helvetica,sans-Serif" font-size="12.00">varchar</text>
<polygon fill="White" stroke="transparent" points="98.5,-298.5 98.5,-317.5 210.5,-317.5 210.5,-298.5 98.5,-298.5"/>
<polygon fill="none" stroke="black" points="98.5,-298.5 98.5,-317.5 210.5,-317.5 210.5,-298.5 98.5,-298.5"/>
<text text-anchor="start" x="101.5" y="-304.9" font-family="Helvetica,sans-Serif" font-size="12.00">email</text>
<polygon fill="White" stroke="transparent" points="210.5,-298.5 210.5,-317.5 269.5,-317.5 269.5,-298.5 210.5,-298.5"/>
<polygon fill="none" stroke="black" points="210.5,-298.5 210.5,-317.5 269.5,-317.5 269.5,-298.5 210.5,-298.5"/>
<text text-anchor="start" x="213.5" y="-304.9" font-family="Helvetica,sans-Serif" font-size="12.00">varchar</text>
<polygon fill="White" stroke="transparent" points="98.5,-279.5 98.5,-298.5 210.5,-298.5 210.5,-279.5 98.5,-279.5"/>
<polygon fill="none" stroke="black" points="98.5,-279.5 98.5,-298.5 210.5,-298.5 210.5,-279.5 98.5,-279.5"/>
<text text-anchor="start" x="101.5" y="-285.9" font-family="Helvetica,sans-Serif" font-size="12.00">officeCode</text>
<polygon fill="White" stroke="transparent" points="210.5,-279.5 210.5,-298.5 269.5,-298.5 269.5,-279.5 210.5,-279.5"/>
<polygon fill="none" stroke="black" points="210.5,-279.5 210.5,-298.5 269.5,-298.5 269.5,-279.5 210.5,-279.5"/>
<text text-anchor="start" x="213.5" y="-285.9" font-family="Helvetica,sans-Serif" font-size="12.00">varchar</text>
<polygon fill="White" stroke="transparent" points="98.5,-260.5 98.5,-279.5 210.5,-279.5 210.5,-260.5 98.5,-260.5"/>
<polygon fill="none" stroke="black" points="98.5,-260.5 98.5,-279.5 210.5,-279.5 210.5,-260.5 98.5,-260.5"/>
<text text-anchor="start" x="101.5" y="-266.9" font-family="Helvetica,sans-Serif" font-size="12.00">reportsTo</text>
<polygon fill="White" stroke="transparent" points="210.5,-260.5 210.5,-279.5 269.5,-279.5 269.5,-260.5 210.5,-260.5"/>
<polygon fill="none" stroke="black" points="210.5,-260.5 210.5,-279.5 269.5,-279.5 269.5,-260.5 210.5,-260.5"/>
<text text-anchor="start" x="213.5" y="-266.9" font-family="Helvetica,sans-Serif" font-size="12.00">int</text>
<polygon fill="White" stroke="transparent" points="98.5,-241.5 98.5,-260.5 210.5,-260.5 210.5,-241.5 98.5,-241.5"/>
<polygon fill="none" stroke="black" points="98.5,-241.5 98.5,-260.5 210.5,-260.5 210.5,-241.5 98.5,-241.5"/>
<text text-anchor="start" x="101.5" y="-247.9" font-family="Helvetica,sans-Serif" font-size="12.00">jobTitle</text>
<polygon fill="White" stroke="transparent" points="210.5,-241.5 210.5,-260.5 269.5,-260.5 269.5,-241.5 210.5,-241.5"/>
<polygon fill="none" stroke="black" points="210.5,-241.5 210.5,-260.5 269.5,-260.5 269.5,-241.5 210.5,-241.5"/>
<text text-anchor="start" x="213.5" y="-247.9" font-family="Helvetica,sans-Serif" font-size="12.00">varchar</text>
</g>
<!-- employees&#45;&gt;employees -->
<g id="edge3" class="edge">
<title>employees&#45;&gt;employees</title>
<path fill="none" stroke="black" d="M152.33,-421.41C152.33,-431.94 152.33,-439 152.33,-439 152.33,-439 75,-439 75,-439 75,-439 75,-220 75,-220 75,-220 93.75,-220 93.75,-220 93.75,-220 93.75,-227.59 93.75,-227.59"/>
<polygon fill="black" stroke="black" points="90.25,-227.59 93.75,-237.59 97.25,-227.59 90.25,-227.59"/>
</g>
<!-- offices -->
<g id="node3" class="node">
<title>offices</title>
<polygon fill="Lavender" stroke="transparent" points="105.5,-175 105.5,-198 261.5,-198 261.5,-175 105.5,-175"/>
<polygon fill="none" stroke="black" points="105.5,-175 105.5,-198 261.5,-198 261.5,-175 105.5,-175"/>
<text text-anchor="start" x="157" y="-183.4" font-family="Helvetica,sans-Serif" font-weight="bold" font-size="12.00">offices</text>
<polygon fill="White" stroke="transparent" points="105.5,-156 105.5,-175 202.5,-175 202.5,-156 105.5,-156"/>
<polygon fill="none" stroke="black" points="105.5,-156 105.5,-175 202.5,-175 202.5,-156 105.5,-156"/>
<text text-anchor="start" x="108.5" y="-162.4" font-family="Helvetica,sans-Serif" font-size="12.00">officeCode</text>
<polygon fill="White" stroke="transparent" points="202.5,-156 202.5,-175 261.5,-175 261.5,-156 202.5,-156"/>
<polygon fill="none" stroke="black" points="202.5,-156 202.5,-175 261.5,-175 261.5,-156 202.5,-156"/>
<text text-anchor="start" x="205.5" y="-162.4" font-family="Helvetica,sans-Serif" font-size="12.00">varchar</text>
<polygon fill="White" stroke="transparent" points="105.5,-137 105.5,-156 202.5,-156 202.5,-137 105.5,-137"/>
<polygon fill="none" stroke="black" points="105.5,-137 105.5,-156 202.5,-156 202.5,-137 105.5,-137"/>
<text text-anchor="start" x="108.5" y="-143.4" font-family="Helvetica,sans-Serif" font-size="12.00">city</text>
<polygon fill="White" stroke="transparent" points="202.5,-137 202.5,-156 261.5,-156 261.5,-137 202.5,-137"/>
<polygon fill="none" stroke="black" points="202.5,-137 202.5,-156 261.5,-156 261.5,-137 202.5,-137"/>
<text text-anchor="start" x="205.5" y="-143.4" font-family="Helvetica,sans-Serif" font-size="12.00">varchar</text>
<polygon fill="White" stroke="transparent" points="105.5,-118 105.5,-137 202.5,-137 202.5,-118 105.5,-118"/>
<polygon fill="none" stroke="black" points="105.5,-118 105.5,-137 202.5,-137 202.5,-118 105.5,-118"/>
<text text-anchor="start" x="108.5" y="-124.4" font-family="Helvetica,sans-Serif" font-size="12.00">phone</text>
<polygon fill="White" stroke="transparent" points="202.5,-118 202.5,-137 261.5,-137 261.5,-118 202.5,-118"/>
<polygon fill="none" stroke="black" points="202.5,-118 202.5,-137 261.5,-137 261.5,-118 202.5,-118"/>
<text text-anchor="start" x="205.5" y="-124.4" font-family="Helvetica,sans-Serif" font-size="12.00">varchar</text>
<polygon fill="White" stroke="transparent" points="105.5,-99 105.5,-118 202.5,-118 202.5,-99 105.5,-99"/>
<polygon fill="none" stroke="black" points="105.5,-99 105.5,-118 202.5,-118 202.5,-99 105.5,-99"/>
<text text-anchor="start" x="108.5" y="-105.4" font-family="Helvetica,sans-Serif" font-size="12.00">addressLine1</text>
<polygon fill="White" stroke="transparent" points="202.5,-99 202.5,-118 261.5,-118 261.5,-99 202.5,-99"/>
<polygon fill="none" stroke="black" points="202.5,-99 202.5,-118 261.5,-118 261.5,-99 202.5,-99"/>
<text text-anchor="start" x="205.5" y="-105.4" font-family="Helvetica,sans-Serif" font-size="12.00">varchar</text>
<polygon fill="White" stroke="transparent" points="105.5,-80 105.5,-99 202.5,-99 202.5,-80 105.5,-80"/>
<polygon fill="none" stroke="black" points="105.5,-80 105.5,-99 202.5,-99 202.5,-80 105.5,-80"/>
<text text-anchor="start" x="108.5" y="-86.4" font-family="Helvetica,sans-Serif" font-size="12.00">addressLine2</text>
<polygon fill="White" stroke="transparent" points="202.5,-80 202.5,-99 261.5,-99 261.5,-80 202.5,-80"/>
<polygon fill="none" stroke="black" points="202.5,-80 202.5,-99 261.5,-99 261.5,-80 202.5,-80"/>
<text text-anchor="start" x="205.5" y="-86.4" font-family="Helvetica,sans-Serif" font-size="12.00">varchar</text>
<polygon fill="White" stroke="transparent" points="105.5,-61 105.5,-80 202.5,-80 202.5,-61 105.5,-61"/>
<polygon fill="none" stroke="black" points="105.5,-61 105.5,-80 202.5,-80 202.5,-61 105.5,-61"/>
<text text-anchor="start" x="108.5" y="-67.4" font-family="Helvetica,sans-Serif" font-size="12.00">state</text>
<polygon fill="White" stroke="transparent" points="202.5,-61 202.5,-80 261.5,-80 261.5,-61 202.5,-61"/>
<polygon fill="none" stroke="black" points="202.5,-61 202.5,-80 261.5,-80 261.5,-61 202.5,-61"/>
<text text-anchor="start" x="205.5" y="-67.4" font-family="Helvetica,sans-Serif" font-size="12.00">varchar</text>
<polygon fill="White" stroke="transparent" points="105.5,-42 105.5,-61 202.5,-61 202.5,-42 105.5,-42"/>
<polygon fill="none" stroke="black" points="105.5,-42 105.5,-61 202.5,-61 202.5,-42 105.5,-42"/>
<text text-anchor="start" x="108.5" y="-48.4" font-family="Helvetica,sans-Serif" font-size="12.00">country</text>
<polygon fill="White" stroke="transparent" points="202.5,-42 202.5,-61 261.5,-61 261.5,-42 202.5,-42"/>
<polygon fill="none" stroke="black" points="202.5,-42 202.5,-61 261.5,-61 261.5,-42 202.5,-42"/>
<text text-anchor="start" x="205.5" y="-48.4" font-family="Helvetica,sans-Serif" font-size="12.00">varchar</text>
<polygon fill="White" stroke="transparent" points="105.5,-23 105.5,-42 202.5,-42 202.5,-23 105.5,-23"/>
<polygon fill="none" stroke="black" points="105.5,-23 105.5,-42 202.5,-42 202.5,-23 105.5,-23"/>
<text text-anchor="start" x="108.5" y="-29.4" font-family="Helvetica,sans-Serif" font-size="12.00">postalCode</text>
<polygon fill="White" stroke="transparent" points="202.5,-23 202.5,-42 261.5,-42 261.5,-23 202.5,-23"/>
<polygon fill="none" stroke="black" points="202.5,-23 202.5,-42 261.5,-42 261.5,-23 202.5,-23"/>
<text text-anchor="start" x="205.5" y="-29.4" font-family="Helvetica,sans-Serif" font-size="12.00">varchar</text>
<polygon fill="White" stroke="transparent" points="105.5,-4 105.5,-23 202.5,-23 202.5,-4 105.5,-4"/>
<polygon fill="none" stroke="black" points="105.5,-4 105.5,-23 202.5,-23 202.5,-4 105.5,-4"/>
<text text-anchor="start" x="108.5" y="-10.4" font-family="Helvetica,sans-Serif" font-size="12.00">territory</text>
<polygon fill="White" stroke="transparent" points="202.5,-4 202.5,-23 261.5,-23 261.5,-4 202.5,-4"/>
<polygon fill="none" stroke="black" points="202.5,-4 202.5,-23 261.5,-23 261.5,-4 202.5,-4"/>
<text text-anchor="start" x="205.5" y="-10.4" font-family="Helvetica,sans-Serif" font-size="12.00">varchar</text>
</g>
<!-- employees&#45;&gt;offices -->
<g id="edge2" class="edge">
<title>employees&#45;&gt;offices</title>
<path fill="none" stroke="black" d="M183.5,-237.88C183.5,-237.88 183.5,-212.02 183.5,-212.02"/>
<polygon fill="black" stroke="black" points="187,-212.02 183.5,-202.02 180,-212.02 187,-212.02"/>
</g>
<!-- customers -->
<g id="node2" class="node">
<title>customers</title>
<polygon fill="Lavender" stroke="transparent" points="68.5,-708 68.5,-731 299.5,-731 299.5,-708 68.5,-708"/>
<polygon fill="none" stroke="black" points="68.5,-708 68.5,-731 299.5,-731 299.5,-708 68.5,-708"/>
<text text-anchor="start" x="150" y="-716.4" font-family="Helvetica,sans-Serif" font-weight="bold" font-size="12.00">customers</text>
<polygon fill="White" stroke="transparent" points="68.5,-689 68.5,-708 240.5,-708 240.5,-689 68.5,-689"/>
<polygon fill="none" stroke="black" points="68.5,-689 68.5,-708 240.5,-708 240.5,-689 68.5,-689"/>
<text text-anchor="start" x="71.5" y="-695.4" font-family="Helvetica,sans-Serif" font-size="12.00">customerNumber</text>
<polygon fill="White" stroke="transparent" points="240.5,-689 240.5,-708 299.5,-708 299.5,-689 240.5,-689"/>
<polygon fill="none" stroke="black" points="240.5,-689 240.5,-708 299.5,-708 299.5,-689 240.5,-689"/>
<text text-anchor="start" x="243.5" y="-695.4" font-family="Helvetica,sans-Serif" font-size="12.00">int</text>
<polygon fill="White" stroke="transparent" points="68.5,-670 68.5,-689 240.5,-689 240.5,-670 68.5,-670"/>
<polygon fill="none" stroke="black" points="68.5,-670 68.5,-689 240.5,-689 240.5,-670 68.5,-670"/>
<text text-anchor="start" x="71.5" y="-676.4" font-family="Helvetica,sans-Serif" font-size="12.00">customerName</text>
<polygon fill="White" stroke="transparent" points="240.5,-670 240.5,-689 299.5,-689 299.5,-670 240.5,-670"/>
<polygon fill="none" stroke="black" points="240.5,-670 240.5,-689 299.5,-689 299.5,-670 240.5,-670"/>
<text text-anchor="start" x="243.5" y="-676.4" font-family="Helvetica,sans-Serif" font-size="12.00">varchar</text>
<polygon fill="White" stroke="transparent" points="68.5,-651 68.5,-670 240.5,-670 240.5,-651 68.5,-651"/>
<polygon fill="none" stroke="black" points="68.5,-651 68.5,-670 240.5,-670 240.5,-651 68.5,-651"/>
<text text-anchor="start" x="71.5" y="-657.4" font-family="Helvetica,sans-Serif" font-size="12.00">contactLastName</text>
<polygon fill="White" stroke="transparent" points="240.5,-651 240.5,-670 299.5,-670 299.5,-651 240.5,-651"/>
<polygon fill="none" stroke="black" points="240.5,-651 240.5,-670 299.5,-670 299.5,-651 240.5,-651"/>
<text text-anchor="start" x="243.5" y="-657.4" font-family="Helvetica,sans-Serif" font-size="12.00">varchar</text>
<polygon fill="White" stroke="transparent" points="68.5,-632 68.5,-651 240.5,-651 240.5,-632 68.5,-632"/>
<polygon fill="none" stroke="black" points="68.5,-632 68.5,-651 240.5,-651 240.5,-632 68.5,-632"/>
<text text-anchor="start" x="71.5" y="-638.4" font-family="Helvetica,sans-Serif" font-size="12.00">contactFirstName</text>
<polygon fill="White" stroke="transparent" points="240.5,-632 240.5,-651 299.5,-651 299.5,-632 240.5,-632"/>
<polygon fill="none" stroke="black" points="240.5,-632 240.5,-651 299.5,-651 299.5,-632 240.5,-632"/>
<text text-anchor="start" x="243.5" y="-638.4" font-family="Helvetica,sans-Serif" font-size="12.00">varchar</text>
<polygon fill="White" stroke="transparent" points="68.5,-613 68.5,-632 240.5,-632 240.5,-613 68.5,-613"/>
<polygon fill="none" stroke="black" points="68.5,-613 68.5,-632 240.5,-632 240.5,-613 68.5,-613"/>
<text text-anchor="start" x="71.5" y="-619.4" font-family="Helvetica,sans-Serif" font-size="12.00">phone</text>
<polygon fill="White" stroke="transparent" points="240.5,-613 240.5,-632 299.5,-632 299.5,-613 240.5,-613"/>
<polygon fill="none" stroke="black" points="240.5,-613 240.5,-632 299.5,-632 299.5,-613 240.5,-613"/>
<text text-anchor="start" x="243.5" y="-619.4" font-family="Helvetica,sans-Serif" font-size="12.00">varchar</text>
<polygon fill="White" stroke="transparent" points="68.5,-594 68.5,-613 240.5,-613 240.5,-594 68.5,-594"/>
<polygon fill="none" stroke="black" points="68.5,-594 68.5,-613 240.5,-613 240.5,-594 68.5,-594"/>
<text text-anchor="start" x="71.5" y="-600.4" font-family="Helvetica,sans-Serif" font-size="12.00">addressLine1</text>
<polygon fill="White" stroke="transparent" points="240.5,-594 240.5,-613 299.5,-613 299.5,-594 240.5,-594"/>
<polygon fill="none" stroke="black" points="240.5,-594 240.5,-613 299.5,-613 299.5,-594 240.5,-594"/>
<text text-anchor="start" x="243.5" y="-600.4" font-family="Helvetica,sans-Serif" font-size="12.00">varchar</text>
<polygon fill="White" stroke="transparent" points="68.5,-575 68.5,-594 240.5,-594 240.5,-575 68.5,-575"/>
<polygon fill="none" stroke="black" points="68.5,-575 68.5,-594 240.5,-594 240.5,-575 68.5,-575"/>
<text text-anchor="start" x="71.5" y="-581.4" font-family="Helvetica,sans-Serif" font-size="12.00">addressLine2</text>
<polygon fill="White" stroke="transparent" points="240.5,-575 240.5,-594 299.5,-594 299.5,-575 240.5,-575"/>
<polygon fill="none" stroke="black" points="240.5,-575 240.5,-594 299.5,-594 299.5,-575 240.5,-575"/>
<text text-anchor="start" x="243.5" y="-581.4" font-family="Helvetica,sans-Serif" font-size="12.00">varchar</text>
<polygon fill="White" stroke="transparent" points="68.5,-556 68.5,-575 240.5,-575 240.5,-556 68.5,-556"/>
<polygon fill="none" stroke="black" points="68.5,-556 68.5,-575 240.5,-575 240.5,-556 68.5,-556"/>
<text text-anchor="start" x="71.5" y="-562.4" font-family="Helvetica,sans-Serif" font-size="12.00">city</text>
<polygon fill="White" stroke="transparent" points="240.5,-556 240.5,-575 299.5,-575 299.5,-556 240.5,-556"/>
<polygon fill="none" stroke="black" points="240.5,-556 240.5,-575 299.5,-575 299.5,-556 240.5,-556"/>
<text text-anchor="start" x="243.5" y="-562.4" font-family="Helvetica,sans-Serif" font-size="12.00">varchar</text>
<polygon fill="White" stroke="transparent" points="68.5,-537 68.5,-556 240.5,-556 240.5,-537 68.5,-537"/>
<polygon fill="none" stroke="black" points="68.5,-537 68.5,-556 240.5,-556 240.5,-537 68.5,-537"/>
<text text-anchor="start" x="71.5" y="-543.4" font-family="Helvetica,sans-Serif" font-size="12.00">state</text>
<polygon fill="White" stroke="transparent" points="240.5,-537 240.5,-556 299.5,-556 299.5,-537 240.5,-537"/>
<polygon fill="none" stroke="black" points="240.5,-537 240.5,-556 299.5,-556 299.5,-537 240.5,-537"/>
<text text-anchor="start" x="243.5" y="-543.4" font-family="Helvetica,sans-Serif" font-size="12.00">varchar</text>
<polygon fill="White" stroke="transparent" points="68.5,-518 68.5,-537 240.5,-537 240.5,-518 68.5,-518"/>
<polygon fill="none" stroke="black" points="68.5,-518 68.5,-537 240.5,-537 240.5,-518 68.5,-518"/>
<text text-anchor="start" x="71.5" y="-524.4" font-family="Helvetica,sans-Serif" font-size="12.00">postalCode</text>
<polygon fill="White" stroke="transparent" points="240.5,-518 240.5,-537 299.5,-537 299.5,-518 240.5,-518"/>
<polygon fill="none" stroke="black" points="240.5,-518 240.5,-537 299.5,-537 299.5,-518 240.5,-518"/>
<text text-anchor="start" x="243.5" y="-524.4" font-family="Helvetica,sans-Serif" font-size="12.00">varchar</text>
<polygon fill="White" stroke="transparent" points="68.5,-499 68.5,-518 240.5,-518 240.5,-499 68.5,-499"/>
<polygon fill="none" stroke="black" points="68.5,-499 68.5,-518 240.5,-518 240.5,-499 68.5,-499"/>
<text text-anchor="start" x="71.5" y="-505.4" font-family="Helvetica,sans-Serif" font-size="12.00">country</text>
<polygon fill="White" stroke="transparent" points="240.5,-499 240.5,-518 299.5,-518 299.5,-499 240.5,-499"/>
<polygon fill="none" stroke="black" points="240.5,-499 240.5,-518 299.5,-518 299.5,-499 240.5,-499"/>
<text text-anchor="start" x="243.5" y="-505.4" font-family="Helvetica,sans-Serif" font-size="12.00">varchar</text>
<polygon fill="White" stroke="transparent" points="68.5,-480 68.5,-499 240.5,-499 240.5,-480 68.5,-480"/>
<polygon fill="none" stroke="black" points="68.5,-480 68.5,-499 240.5,-499 240.5,-480 68.5,-480"/>
<text text-anchor="start" x="71.5" y="-486.4" font-family="Helvetica,sans-Serif" font-size="12.00">salesRepEmployeeNumber</text>
<polygon fill="White" stroke="transparent" points="240.5,-480 240.5,-499 299.5,-499 299.5,-480 240.5,-480"/>
<polygon fill="none" stroke="black" points="240.5,-480 240.5,-499 299.5,-499 299.5,-480 240.5,-480"/>
<text text-anchor="start" x="243.5" y="-486.4" font-family="Helvetica,sans-Serif" font-size="12.00">int</text>
<polygon fill="White" stroke="transparent" points="68.5,-461 68.5,-480 240.5,-480 240.5,-461 68.5,-461"/>
<polygon fill="none" stroke="black" points="68.5,-461 68.5,-480 240.5,-480 240.5,-461 68.5,-461"/>
<text text-anchor="start" x="71.5" y="-467.4" font-family="Helvetica,sans-Serif" font-size="12.00">creditLimit</text>
<polygon fill="White" stroke="transparent" points="240.5,-461 240.5,-480 299.5,-480 299.5,-461 240.5,-461"/>
<polygon fill="none" stroke="black" points="240.5,-461 240.5,-480 299.5,-480 299.5,-461 240.5,-461"/>
<text text-anchor="start" x="243.5" y="-467.4" font-family="Helvetica,sans-Serif" font-size="12.00">double</text>
</g>
<!-- customers&#45;&gt;employees -->
<g id="edge1" class="edge">
<title>customers&#45;&gt;employees</title>
<path fill="none" stroke="black" d="M214.67,-456.9C214.67,-456.9 214.67,-431.14 214.67,-431.14"/>
<polygon fill="black" stroke="black" points="218.17,-431.14 214.67,-421.14 211.17,-431.14 218.17,-431.14"/>
</g>
<!-- orders -->
<g id="node4" class="node">
<title>orders</title>
<polygon fill="Lavender" stroke="transparent" points="8.5,-927 8.5,-950 179.5,-950 179.5,-927 8.5,-927"/>
<polygon fill="none" stroke="black" points="8.5,-927 8.5,-950 179.5,-950 179.5,-927 8.5,-927"/>
<text text-anchor="start" x="71" y="-935.4" font-family="Helvetica,sans-Serif" font-weight="bold" font-size="12.00">orders</text>
<polygon fill="White" stroke="transparent" points="8.5,-908 8.5,-927 120.5,-927 120.5,-908 8.5,-908"/>
<polygon fill="none" stroke="black" points="8.5,-908 8.5,-927 120.5,-927 120.5,-908 8.5,-908"/>
<text text-anchor="start" x="11.5" y="-914.4" font-family="Helvetica,sans-Serif" font-size="12.00">orderNumber</text>
<polygon fill="White" stroke="transparent" points="120.5,-908 120.5,-927 179.5,-927 179.5,-908 120.5,-908"/>
<polygon fill="none" stroke="black" points="120.5,-908 120.5,-927 179.5,-927 179.5,-908 120.5,-908"/>
<text text-anchor="start" x="123.5" y="-914.4" font-family="Helvetica,sans-Serif" font-size="12.00">int</text>
<polygon fill="White" stroke="transparent" points="8.5,-889 8.5,-908 120.5,-908 120.5,-889 8.5,-889"/>
<polygon fill="none" stroke="black" points="8.5,-889 8.5,-908 120.5,-908 120.5,-889 8.5,-889"/>
<text text-anchor="start" x="11.5" y="-895.4" font-family="Helvetica,sans-Serif" font-size="12.00">orderDate</text>
<polygon fill="White" stroke="transparent" points="120.5,-889 120.5,-908 179.5,-908 179.5,-889 120.5,-889"/>
<polygon fill="none" stroke="black" points="120.5,-889 120.5,-908 179.5,-908 179.5,-889 120.5,-889"/>
<text text-anchor="start" x="123.5" y="-895.4" font-family="Helvetica,sans-Serif" font-size="12.00">date</text>
<polygon fill="White" stroke="transparent" points="8.5,-870 8.5,-889 120.5,-889 120.5,-870 8.5,-870"/>
<polygon fill="none" stroke="black" points="8.5,-870 8.5,-889 120.5,-889 120.5,-870 8.5,-870"/>
<text text-anchor="start" x="11.5" y="-876.4" font-family="Helvetica,sans-Serif" font-size="12.00">requiredDate</text>
<polygon fill="White" stroke="transparent" points="120.5,-870 120.5,-889 179.5,-889 179.5,-870 120.5,-870"/>
<polygon fill="none" stroke="black" points="120.5,-870 120.5,-889 179.5,-889 179.5,-870 120.5,-870"/>
<text text-anchor="start" x="123.5" y="-876.4" font-family="Helvetica,sans-Serif" font-size="12.00">date</text>
<polygon fill="White" stroke="transparent" points="8.5,-851 8.5,-870 120.5,-870 120.5,-851 8.5,-851"/>
<polygon fill="none" stroke="black" points="8.5,-851 8.5,-870 120.5,-870 120.5,-851 8.5,-851"/>
<text text-anchor="start" x="11.5" y="-857.4" font-family="Helvetica,sans-Serif" font-size="12.00">shippedDate</text>
<polygon fill="White" stroke="transparent" points="120.5,-851 120.5,-870 179.5,-870 179.5,-851 120.5,-851"/>
<polygon fill="none" stroke="black" points="120.5,-851 120.5,-870 179.5,-870 179.5,-851 120.5,-851"/>
<text text-anchor="start" x="123.5" y="-857.4" font-family="Helvetica,sans-Serif" font-size="12.00">date</text>
<polygon fill="White" stroke="transparent" points="8.5,-832 8.5,-851 120.5,-851 120.5,-832 8.5,-832"/>
<polygon fill="none" stroke="black" points="8.5,-832 8.5,-851 120.5,-851 120.5,-832 8.5,-832"/>
<text text-anchor="start" x="11.5" y="-838.4" font-family="Helvetica,sans-Serif" font-size="12.00">status</text>
<polygon fill="White" stroke="transparent" points="120.5,-832 120.5,-851 179.5,-851 179.5,-832 120.5,-832"/>
<polygon fill="none" stroke="black" points="120.5,-832 120.5,-851 179.5,-851 179.5,-832 120.5,-832"/>
<text text-anchor="start" x="123.5" y="-838.4" font-family="Helvetica,sans-Serif" font-size="12.00">varchar</text>
<polygon fill="White" stroke="transparent" points="8.5,-813 8.5,-832 120.5,-832 120.5,-813 8.5,-813"/>
<polygon fill="none" stroke="black" points="8.5,-813 8.5,-832 120.5,-832 120.5,-813 8.5,-813"/>
<text text-anchor="start" x="11.5" y="-819.4" font-family="Helvetica,sans-Serif" font-size="12.00">comments</text>
<polygon fill="White" stroke="transparent" points="120.5,-813 120.5,-832 179.5,-832 179.5,-813 120.5,-813"/>
<polygon fill="none" stroke="black" points="120.5,-813 120.5,-832 179.5,-832 179.5,-813 120.5,-813"/>
<text text-anchor="start" x="123.5" y="-819.4" font-family="Helvetica,sans-Serif" font-size="12.00">text</text>
<polygon fill="White" stroke="transparent" points="8.5,-794 8.5,-813 120.5,-813 120.5,-794 8.5,-794"/>
<polygon fill="none" stroke="black" points="8.5,-794 8.5,-813 120.5,-813 120.5,-794 8.5,-794"/>
<text text-anchor="start" x="11.5" y="-800.4" font-family="Helvetica,sans-Serif" font-size="12.00">customerNumber</text>
<polygon fill="White" stroke="transparent" points="120.5,-794 120.5,-813 179.5,-813 179.5,-794 120.5,-794"/>
<polygon fill="none" stroke="black" points="120.5,-794 120.5,-813 179.5,-813 179.5,-794 120.5,-794"/>
<text text-anchor="start" x="123.5" y="-800.4" font-family="Helvetica,sans-Serif" font-size="12.00">int</text>
</g>
<!-- orders&#45;&gt;customers -->
<g id="edge6" class="edge">
<title>orders&#45;&gt;customers</title>
<path fill="none" stroke="black" d="M123.5,-789.94C123.5,-789.94 123.5,-745.12 123.5,-745.12"/>
<polygon fill="black" stroke="black" points="127,-745.12 123.5,-735.12 120,-745.12 127,-745.12"/>
</g>
<!-- orderdetails -->
<g id="node5" class="node">
<title>orderdetails</title>
<polygon fill="Lavender" stroke="transparent" points="214.5,-1108 214.5,-1131 400.5,-1131 400.5,-1108 214.5,-1108"/>
<polygon fill="none" stroke="black" points="214.5,-1108 214.5,-1131 400.5,-1131 400.5,-1108 214.5,-1108"/>
<text text-anchor="start" x="262" y="-1116.4" font-family="Helvetica,sans-Serif" font-weight="bold" font-size="12.00">orderdetails</text>
<polygon fill="White" stroke="transparent" points="214.5,-1089 214.5,-1108 333.5,-1108 333.5,-1089 214.5,-1089"/>
<polygon fill="none" stroke="black" points="214.5,-1089 214.5,-1108 333.5,-1108 333.5,-1089 214.5,-1089"/>
<text text-anchor="start" x="217.5" y="-1095.4" font-family="Helvetica,sans-Serif" font-size="12.00">orderNumber</text>
<polygon fill="White" stroke="transparent" points="333.5,-1089 333.5,-1108 400.5,-1108 400.5,-1089 333.5,-1089"/>
<polygon fill="none" stroke="black" points="333.5,-1089 333.5,-1108 400.5,-1108 400.5,-1089 333.5,-1089"/>
<text text-anchor="start" x="336.5" y="-1095.4" font-family="Helvetica,sans-Serif" font-size="12.00">int</text>
<polygon fill="White" stroke="transparent" points="214.5,-1070 214.5,-1089 333.5,-1089 333.5,-1070 214.5,-1070"/>
<polygon fill="none" stroke="black" points="214.5,-1070 214.5,-1089 333.5,-1089 333.5,-1070 214.5,-1070"/>
<text text-anchor="start" x="217.5" y="-1076.4" font-family="Helvetica,sans-Serif" font-size="12.00">productCode</text>
<polygon fill="White" stroke="transparent" points="333.5,-1070 333.5,-1089 400.5,-1089 400.5,-1070 333.5,-1070"/>
<polygon fill="none" stroke="black" points="333.5,-1070 333.5,-1089 400.5,-1089 400.5,-1070 333.5,-1070"/>
<text text-anchor="start" x="336.5" y="-1076.4" font-family="Helvetica,sans-Serif" font-size="12.00">varchar</text>
<polygon fill="White" stroke="transparent" points="214.5,-1051 214.5,-1070 333.5,-1070 333.5,-1051 214.5,-1051"/>
<polygon fill="none" stroke="black" points="214.5,-1051 214.5,-1070 333.5,-1070 333.5,-1051 214.5,-1051"/>
<text text-anchor="start" x="217.5" y="-1057.4" font-family="Helvetica,sans-Serif" font-size="12.00">quantityOrdered</text>
<polygon fill="White" stroke="transparent" points="333.5,-1051 333.5,-1070 400.5,-1070 400.5,-1051 333.5,-1051"/>
<polygon fill="none" stroke="black" points="333.5,-1051 333.5,-1070 400.5,-1070 400.5,-1051 333.5,-1051"/>
<text text-anchor="start" x="336.5" y="-1057.4" font-family="Helvetica,sans-Serif" font-size="12.00">int</text>
<polygon fill="White" stroke="transparent" points="214.5,-1032 214.5,-1051 333.5,-1051 333.5,-1032 214.5,-1032"/>
<polygon fill="none" stroke="black" points="214.5,-1032 214.5,-1051 333.5,-1051 333.5,-1032 214.5,-1032"/>
<text text-anchor="start" x="217.5" y="-1038.4" font-family="Helvetica,sans-Serif" font-size="12.00">priceEach</text>
<polygon fill="White" stroke="transparent" points="333.5,-1032 333.5,-1051 400.5,-1051 400.5,-1032 333.5,-1032"/>
<polygon fill="none" stroke="black" points="333.5,-1032 333.5,-1051 400.5,-1051 400.5,-1032 333.5,-1032"/>
<text text-anchor="start" x="336.5" y="-1038.4" font-family="Helvetica,sans-Serif" font-size="12.00">double</text>
<polygon fill="White" stroke="transparent" points="214.5,-1013 214.5,-1032 333.5,-1032 333.5,-1013 214.5,-1013"/>
<polygon fill="none" stroke="black" points="214.5,-1013 214.5,-1032 333.5,-1032 333.5,-1013 214.5,-1013"/>
<text text-anchor="start" x="217.5" y="-1019.4" font-family="Helvetica,sans-Serif" font-size="12.00">orderLineNumber</text>
<polygon fill="White" stroke="transparent" points="333.5,-1013 333.5,-1032 400.5,-1032 400.5,-1013 333.5,-1013"/>
<polygon fill="none" stroke="black" points="333.5,-1013 333.5,-1032 400.5,-1032 400.5,-1013 333.5,-1013"/>
<text text-anchor="start" x="336.5" y="-1019.4" font-family="Helvetica,sans-Serif" font-size="12.00">smallint</text>
</g>
<!-- orderdetails&#45;&gt;orders -->
<g id="edge4" class="edge">
<title>orderdetails&#45;&gt;orders</title>
<path fill="none" stroke="black" d="M299.25,-1008.62C299.25,-974.36 299.25,-939 299.25,-939 299.25,-939 197.04,-939 197.04,-939"/>
<polygon fill="black" stroke="black" points="197.04,-935.5 187.04,-939 197.04,-942.5 197.04,-935.5"/>
</g>
<!-- products -->
<g id="node6" class="node">
<title>products</title>
<polygon fill="Lavender" stroke="transparent" points="418.5,-946 418.5,-969 627.5,-969 627.5,-946 418.5,-946"/>
<polygon fill="none" stroke="black" points="418.5,-946 418.5,-969 627.5,-969 627.5,-946 418.5,-946"/>
<text text-anchor="start" x="492.5" y="-954.4" font-family="Helvetica,sans-Serif" font-weight="bold" font-size="12.00">products</text>
<polygon fill="White" stroke="transparent" points="418.5,-927 418.5,-946 560.5,-946 560.5,-927 418.5,-927"/>
<polygon fill="none" stroke="black" points="418.5,-927 418.5,-946 560.5,-946 560.5,-927 418.5,-927"/>
<text text-anchor="start" x="421.5" y="-933.4" font-family="Helvetica,sans-Serif" font-size="12.00">productCode</text>
<polygon fill="White" stroke="transparent" points="560.5,-927 560.5,-946 627.5,-946 627.5,-927 560.5,-927"/>
<polygon fill="none" stroke="black" points="560.5,-927 560.5,-946 627.5,-946 627.5,-927 560.5,-927"/>
<text text-anchor="start" x="563.5" y="-933.4" font-family="Helvetica,sans-Serif" font-size="12.00">varchar</text>
<polygon fill="White" stroke="transparent" points="418.5,-908 418.5,-927 560.5,-927 560.5,-908 418.5,-908"/>
<polygon fill="none" stroke="black" points="418.5,-908 418.5,-927 560.5,-927 560.5,-908 418.5,-908"/>
<text text-anchor="start" x="421.5" y="-914.4" font-family="Helvetica,sans-Serif" font-size="12.00">productName</text>
<polygon fill="White" stroke="transparent" points="560.5,-908 560.5,-927 627.5,-927 627.5,-908 560.5,-908"/>
<polygon fill="none" stroke="black" points="560.5,-908 560.5,-927 627.5,-927 627.5,-908 560.5,-908"/>
<text text-anchor="start" x="563.5" y="-914.4" font-family="Helvetica,sans-Serif" font-size="12.00">varchar</text>
<polygon fill="White" stroke="transparent" points="418.5,-889 418.5,-908 560.5,-908 560.5,-889 418.5,-889"/>
<polygon fill="none" stroke="black" points="418.5,-889 418.5,-908 560.5,-908 560.5,-889 418.5,-889"/>
<text text-anchor="start" x="421.5" y="-895.4" font-family="Helvetica,sans-Serif" font-size="12.00">productLine</text>
<polygon fill="White" stroke="transparent" points="560.5,-889 560.5,-908 627.5,-908 627.5,-889 560.5,-889"/>
<polygon fill="none" stroke="black" points="560.5,-889 560.5,-908 627.5,-908 627.5,-889 560.5,-889"/>
<text text-anchor="start" x="563.5" y="-895.4" font-family="Helvetica,sans-Serif" font-size="12.00">varchar</text>
<polygon fill="White" stroke="transparent" points="418.5,-870 418.5,-889 560.5,-889 560.5,-870 418.5,-870"/>
<polygon fill="none" stroke="black" points="418.5,-870 418.5,-889 560.5,-889 560.5,-870 418.5,-870"/>
<text text-anchor="start" x="421.5" y="-876.4" font-family="Helvetica,sans-Serif" font-size="12.00">productScale</text>
<polygon fill="White" stroke="transparent" points="560.5,-870 560.5,-889 627.5,-889 627.5,-870 560.5,-870"/>
<polygon fill="none" stroke="black" points="560.5,-870 560.5,-889 627.5,-889 627.5,-870 560.5,-870"/>
<text text-anchor="start" x="563.5" y="-876.4" font-family="Helvetica,sans-Serif" font-size="12.00">varchar</text>
<polygon fill="White" stroke="transparent" points="418.5,-851 418.5,-870 560.5,-870 560.5,-851 418.5,-851"/>
<polygon fill="none" stroke="black" points="418.5,-851 418.5,-870 560.5,-870 560.5,-851 418.5,-851"/>
<text text-anchor="start" x="421.5" y="-857.4" font-family="Helvetica,sans-Serif" font-size="12.00">productVendor</text>
<polygon fill="White" stroke="transparent" points="560.5,-851 560.5,-870 627.5,-870 627.5,-851 560.5,-851"/>
<polygon fill="none" stroke="black" points="560.5,-851 560.5,-870 627.5,-870 627.5,-851 560.5,-851"/>
<text text-anchor="start" x="563.5" y="-857.4" font-family="Helvetica,sans-Serif" font-size="12.00">varchar</text>
<polygon fill="White" stroke="transparent" points="418.5,-832 418.5,-851 560.5,-851 560.5,-832 418.5,-832"/>
<polygon fill="none" stroke="black" points="418.5,-832 418.5,-851 560.5,-851 560.5,-832 418.5,-832"/>
<text text-anchor="start" x="421.5" y="-838.4" font-family="Helvetica,sans-Serif" font-size="12.00">productDescription</text>
<polygon fill="White" stroke="transparent" points="560.5,-832 560.5,-851 627.5,-851 627.5,-832 560.5,-832"/>
<polygon fill="none" stroke="black" points="560.5,-832 560.5,-851 627.5,-851 627.5,-832 560.5,-832"/>
<text text-anchor="start" x="563.5" y="-838.4" font-family="Helvetica,sans-Serif" font-size="12.00">text</text>
<polygon fill="White" stroke="transparent" points="418.5,-813 418.5,-832 560.5,-832 560.5,-813 418.5,-813"/>
<polygon fill="none" stroke="black" points="418.5,-813 418.5,-832 560.5,-832 560.5,-813 418.5,-813"/>
<text text-anchor="start" x="421.5" y="-819.4" font-family="Helvetica,sans-Serif" font-size="12.00">quantityInStock</text>
<polygon fill="White" stroke="transparent" points="560.5,-813 560.5,-832 627.5,-832 627.5,-813 560.5,-813"/>
<polygon fill="none" stroke="black" points="560.5,-813 560.5,-832 627.5,-832 627.5,-813 560.5,-813"/>
<text text-anchor="start" x="563.5" y="-819.4" font-family="Helvetica,sans-Serif" font-size="12.00">smallint</text>
<polygon fill="White" stroke="transparent" points="418.5,-794 418.5,-813 560.5,-813 560.5,-794 418.5,-794"/>
<polygon fill="none" stroke="black" points="418.5,-794 418.5,-813 560.5,-813 560.5,-794 418.5,-794"/>
<text text-anchor="start" x="421.5" y="-800.4" font-family="Helvetica,sans-Serif" font-size="12.00">buyPrice</text>
<polygon fill="White" stroke="transparent" points="560.5,-794 560.5,-813 627.5,-813 627.5,-794 560.5,-794"/>
<polygon fill="none" stroke="black" points="560.5,-794 560.5,-813 627.5,-813 627.5,-794 560.5,-794"/>
<text text-anchor="start" x="563.5" y="-800.4" font-family="Helvetica,sans-Serif" font-size="12.00">double</text>
<polygon fill="White" stroke="transparent" points="418.5,-775 418.5,-794 560.5,-794 560.5,-775 418.5,-775"/>
<polygon fill="none" stroke="black" points="418.5,-775 418.5,-794 560.5,-794 560.5,-775 418.5,-775"/>
<text text-anchor="start" x="421.5" y="-781.4" font-family="Helvetica,sans-Serif" font-size="12.00">MSRP</text>
<polygon fill="White" stroke="transparent" points="560.5,-775 560.5,-794 627.5,-794 627.5,-775 560.5,-775"/>
<polygon fill="none" stroke="black" points="560.5,-775 560.5,-794 627.5,-794 627.5,-775 560.5,-775"/>
<text text-anchor="start" x="563.5" y="-781.4" font-family="Helvetica,sans-Serif" font-size="12.00">double</text>
</g>
<!-- orderdetails&#45;&gt;products -->
<g id="edge5" class="edge">
<title>orderdetails&#45;&gt;products</title>
<path fill="none" stroke="black" d="M400.25,-1008.91C400.25,-984.81 400.25,-963 400.25,-963 400.25,-963 401.21,-963 401.21,-963"/>
<polygon fill="black" stroke="black" points="399.84,-966.5 409.84,-963 399.84,-959.5 399.84,-966.5"/>
</g>
<!-- productlines -->
<g id="node8" class="node">
<title>productlines</title>
<polygon fill="Lavender" stroke="transparent" points="422.5,-622 422.5,-645 623.5,-645 623.5,-622 422.5,-622"/>
<polygon fill="none" stroke="black" points="422.5,-622 422.5,-645 623.5,-645 623.5,-622 422.5,-622"/>
<text text-anchor="start" x="477.5" y="-630.4" font-family="Helvetica,sans-Serif" font-weight="bold" font-size="12.00">productlines</text>
<polygon fill="White" stroke="transparent" points="422.5,-603 422.5,-622 541.5,-622 541.5,-603 422.5,-603"/>
<polygon fill="none" stroke="black" points="422.5,-603 422.5,-622 541.5,-622 541.5,-603 422.5,-603"/>
<text text-anchor="start" x="425.5" y="-609.4" font-family="Helvetica,sans-Serif" font-size="12.00">productLine</text>
<polygon fill="White" stroke="transparent" points="541.5,-603 541.5,-622 623.5,-622 623.5,-603 541.5,-603"/>
<polygon fill="none" stroke="black" points="541.5,-603 541.5,-622 623.5,-622 623.5,-603 541.5,-603"/>
<text text-anchor="start" x="544.5" y="-609.4" font-family="Helvetica,sans-Serif" font-size="12.00">varchar</text>
<polygon fill="White" stroke="transparent" points="422.5,-584 422.5,-603 541.5,-603 541.5,-584 422.5,-584"/>
<polygon fill="none" stroke="black" points="422.5,-584 422.5,-603 541.5,-603 541.5,-584 422.5,-584"/>
<text text-anchor="start" x="425.5" y="-590.4" font-family="Helvetica,sans-Serif" font-size="12.00">textDescription</text>
<polygon fill="White" stroke="transparent" points="541.5,-584 541.5,-603 623.5,-603 623.5,-584 541.5,-584"/>
<polygon fill="none" stroke="black" points="541.5,-584 541.5,-603 623.5,-603 623.5,-584 541.5,-584"/>
<text text-anchor="start" x="544.5" y="-590.4" font-family="Helvetica,sans-Serif" font-size="12.00">varchar</text>
<polygon fill="White" stroke="transparent" points="422.5,-565 422.5,-584 541.5,-584 541.5,-565 422.5,-565"/>
<polygon fill="none" stroke="black" points="422.5,-565 422.5,-584 541.5,-584 541.5,-565 422.5,-565"/>
<text text-anchor="start" x="425.5" y="-571.4" font-family="Helvetica,sans-Serif" font-size="12.00">htmlDescription</text>
<polygon fill="White" stroke="transparent" points="541.5,-565 541.5,-584 623.5,-584 623.5,-565 541.5,-565"/>
<polygon fill="none" stroke="black" points="541.5,-565 541.5,-584 623.5,-584 623.5,-565 541.5,-565"/>
<text text-anchor="start" x="544.5" y="-571.4" font-family="Helvetica,sans-Serif" font-size="12.00">mediumtext</text>
<polygon fill="White" stroke="transparent" points="422.5,-546 422.5,-565 541.5,-565 541.5,-546 422.5,-546"/>
<polygon fill="none" stroke="black" points="422.5,-546 422.5,-565 541.5,-565 541.5,-546 422.5,-546"/>
<text text-anchor="start" x="425.5" y="-552.4" font-family="Helvetica,sans-Serif" font-size="12.00">image</text>
<polygon fill="White" stroke="transparent" points="541.5,-546 541.5,-565 623.5,-565 623.5,-546 541.5,-546"/>
<polygon fill="none" stroke="black" points="541.5,-546 541.5,-565 623.5,-565 623.5,-546 541.5,-546"/>
<text text-anchor="start" x="544.5" y="-552.4" font-family="Helvetica,sans-Serif" font-size="12.00">mediumblob</text>
</g>
<!-- products&#45;&gt;productlines -->
<g id="edge8" class="edge">
<title>products&#45;&gt;productlines</title>
<path fill="none" stroke="black" d="M522.5,-770.79C522.5,-770.79 522.5,-659.55 522.5,-659.55"/>
<polygon fill="black" stroke="black" points="526,-659.55 522.5,-649.55 519,-659.55 526,-659.55"/>
</g>
<!-- payments -->
<g id="node7" class="node">
<title>payments</title>
<polygon fill="Lavender" stroke="transparent" points="213.5,-898 213.5,-921 384.5,-921 384.5,-898 213.5,-898"/>
<polygon fill="none" stroke="black" points="213.5,-898 213.5,-921 384.5,-921 384.5,-898 213.5,-898"/>
<text text-anchor="start" x="268.5" y="-906.4" font-family="Helvetica,sans-Serif" font-weight="bold" font-size="12.00">payments</text>
<polygon fill="White" stroke="transparent" points="213.5,-879 213.5,-898 325.5,-898 325.5,-879 213.5,-879"/>
<polygon fill="none" stroke="black" points="213.5,-879 213.5,-898 325.5,-898 325.5,-879 213.5,-879"/>
<text text-anchor="start" x="216.5" y="-885.4" font-family="Helvetica,sans-Serif" font-size="12.00">customerNumber</text>
<polygon fill="White" stroke="transparent" points="325.5,-879 325.5,-898 384.5,-898 384.5,-879 325.5,-879"/>
<polygon fill="none" stroke="black" points="325.5,-879 325.5,-898 384.5,-898 384.5,-879 325.5,-879"/>
<text text-anchor="start" x="328.5" y="-885.4" font-family="Helvetica,sans-Serif" font-size="12.00">int</text>
<polygon fill="White" stroke="transparent" points="213.5,-860 213.5,-879 325.5,-879 325.5,-860 213.5,-860"/>
<polygon fill="none" stroke="black" points="213.5,-860 213.5,-879 325.5,-879 325.5,-860 213.5,-860"/>
<text text-anchor="start" x="216.5" y="-866.4" font-family="Helvetica,sans-Serif" font-size="12.00">checkNumber</text>
<polygon fill="White" stroke="transparent" points="325.5,-860 325.5,-879 384.5,-879 384.5,-860 325.5,-860"/>
<polygon fill="none" stroke="black" points="325.5,-860 325.5,-879 384.5,-879 384.5,-860 325.5,-860"/>
<text text-anchor="start" x="328.5" y="-866.4" font-family="Helvetica,sans-Serif" font-size="12.00">varchar</text>
<polygon fill="White" stroke="transparent" points="213.5,-841 213.5,-860 325.5,-860 325.5,-841 213.5,-841"/>
<polygon fill="none" stroke="black" points="213.5,-841 213.5,-860 325.5,-860 325.5,-841 213.5,-841"/>
<text text-anchor="start" x="216.5" y="-847.4" font-family="Helvetica,sans-Serif" font-size="12.00">paymentDate</text>
<polygon fill="White" stroke="transparent" points="325.5,-841 325.5,-860 384.5,-860 384.5,-841 325.5,-841"/>
<polygon fill="none" stroke="black" points="325.5,-841 325.5,-860 384.5,-860 384.5,-841 325.5,-841"/>
<text text-anchor="start" x="328.5" y="-847.4" font-family="Helvetica,sans-Serif" font-size="12.00">date</text>
<polygon fill="White" stroke="transparent" points="213.5,-822 213.5,-841 325.5,-841 325.5,-822 213.5,-822"/>
<polygon fill="none" stroke="black" points="213.5,-822 213.5,-841 325.5,-841 325.5,-822 213.5,-822"/>
<text text-anchor="start" x="216.5" y="-828.4" font-family="Helvetica,sans-Serif" font-size="12.00">amount</text>
<polygon fill="White" stroke="transparent" points="325.5,-822 325.5,-841 384.5,-841 384.5,-822 325.5,-822"/>
<polygon fill="none" stroke="black" points="325.5,-822 325.5,-841 384.5,-841 384.5,-822 325.5,-822"/>
<text text-anchor="start" x="328.5" y="-828.4" font-family="Helvetica,sans-Serif" font-size="12.00">double</text>
</g>
<!-- payments&#45;&gt;customers -->
<g id="edge7" class="edge">
<title>payments&#45;&gt;customers</title>
<path fill="none" stroke="black" d="M256,-818.46C256,-818.46 256,-745.07 256,-745.07"/>
<polygon fill="black" stroke="black" points="259.5,-745.07 256,-735.07 252.5,-745.07 259.5,-745.07"/>
</g>
</g>
</svg>
